<svg xmlns="http://www.w3.org/2000/svg" viewBox="0 0 220 220" role="img" aria-label="RRB icon">
  <style>
    :root { --rails:#D3002D; --react:#61DAFB; }
  </style>
  <rect width="220" height="220" rx="28" fill="#0B1220"/>
  <g transform="translate(110,110)">
    <ellipse rx="58" ry="22" fill="none" stroke="var(--react)" stroke-width="10"/>
    <ellipse rx="58" ry="22" fill="none" stroke="var(--react)" stroke-width="10" transform="rotate(60)"/>
    <ellipse rx="58" ry="22" fill="none" stroke="var(--react)" stroke-width="10" transform="rotate(120)"/>
    <circle r="12" fill="var(--react)"/>
    <path d="M0,-40 L20,-20 L0,0 L-20,-20 Z" fill="var(--rails)"/>
    <g transform="translate(0,38)">
      <line x1="-70" y1="28" x2="70" y2="28" stroke="var(--rails)" stroke-width="8" stroke-linecap="round"/>
      <line x1="-70" y1="50" x2="70" y2="50" stroke="var(--rails)" stroke-width="8" stroke-linecap="round"/>
      <g fill="var(--rails)">
        <rect x="-60" y="32" width="10" height="16" rx="2"/>
        <rect x="-36" y="32" width="10" height="16" rx="2"/>
        <rect x="-12" y="32" width="10" height="16" rx="2"/>
        <rect x="12"  y="32" width="10" height="16" rx="2"/>
        <rect x="36"  y="32" width="10" height="16" rx="2"/>
        <rect x="60"  y="32" width="10" height="16" rx="2"/>
      </g>
    </g>
  </g>
</svg>
